<svg width="400" height="auto" viewBox="0 0 459 112" fill="none" xmlns="http://www.w3.org/2000/svg">
        <path fill-rule="evenodd" clip-rule="evenodd" d="M39.1606 18.8345C38.049 18.8361 37.1418 19.7337 37.1417 20.8454L37.1382 77.7988C37.1381 78.9052 38.0364 79.8014 39.1428 79.7989L45.301 79.7848C46.378 79.7823 47.2604 78.9276 47.2872 77.851C47.4843 69.9544 47.3111 61.8723 47.3115 53.9829C47.3116 50.5697 46.6063 34.3739 47.6127 30.1851C47.7468 29.6267 48.2628 29.3286 48.8359 29.2901C52.8445 29.021 56.4935 29.0322 59.8151 29.3468C61.0006 29.4591 62.0644 28.569 62.1035 27.3788L62.3142 20.9627C62.3485 19.9159 61.5699 19.0171 60.5257 18.9353C53.8255 18.4104 46.7596 18.8237 39.1606 18.8345ZM64.1235 28.2477C64.0912 29.2295 64.7793 30.0832 65.734 30.3144C72.9672 32.0669 78.3173 35.7697 82.2713 41.7752C89.3754 52.5651 86.0447 67.6431 79.3213 76.302C63.399 96.8077 30.5788 95.914 16.7172 74.2622C9.8407 63.5214 9.32114 50.5149 14.7073 38.257C19.3421 27.7093 27.5769 19.7695 37.8173 14.9683C59.0808 4.99872 83.426 11.8783 97.1324 28.7954C103.168 36.2447 97.5779 35.88 110.492 35.7447C111.917 35.7297 112.881 34.2749 112.265 32.989C100.854 9.14389 75.4134 -3.73672 47.3587 0.956313C21.882 5.21805 -0.0544776 27.7689 0.00010163 55.5953C0.102642 107.949 69.3682 130.487 103.908 90.9742C106.597 87.8981 110.617 82.5193 112.621 77.6052C113.113 76.3961 112.177 75.1607 110.871 75.153L102.789 75.1049C102.159 75.1011 101.56 75.3957 101.19 75.9052C96.8572 81.8626 96.671 84.8703 86.7624 91.9393C82.1299 95.2444 75.8764 98.235 68.8451 99.5663C66.9015 99.9343 66.5057 98.4169 68.3383 97.6723C73.7413 95.4773 81.4826 91.6327 88.4061 82.2042C102.96 62.3837 100.192 35.4053 77.6882 23.5248C74.0829 21.6214 70.4038 20.4445 66.6178 19.7271C65.4472 19.5053 64.3811 20.4022 64.342 21.593L64.1235 28.2477Z" fill="#006975"/>
        <path fill-rule="evenodd" clip-rule="evenodd" d="M39.1606 18.8345C38.049 18.8361 37.1418 19.7337 37.1418 20.8454L37.1382 77.7988C37.1381 78.9052 38.0364 79.8014 39.1428 79.7989L45.3011 79.7847C46.378 79.7823 47.2604 78.9276 47.2872 77.851C47.4843 69.9544 47.3111 61.8723 47.3115 53.9829C47.3116 50.5697 46.6063 34.3738 47.6127 30.1851C47.7468 29.6267 48.2628 29.3286 48.8359 29.2901C52.8445 29.021 56.4934 29.0322 59.8151 29.3469C61.0006 29.4592 62.0644 28.569 62.1035 27.3788L62.3142 20.9627C62.3485 19.9159 61.5699 19.0171 60.5257 18.9353C53.8255 18.4104 46.7596 18.8237 39.1606 18.8345Z" fill="#B1C900"/>
        <path d="M128.409 67.3636H129.818V77.7045H133.909V67.3636H135.318V77.7045H139.409V67.3636H140.818V79H128.409V67.3636ZM143.462 79V70.2727H144.803V74.0682H145.689L148.825 70.2727H150.553L147.03 74.4773L150.598 79H148.871L146.007 75.3182H144.803V79H143.462ZM155.241 79.1818C154.454 79.1818 153.762 78.9943 153.168 78.6193C152.577 78.2443 152.115 77.7197 151.781 77.0455C151.452 76.3712 151.287 75.5833 151.287 74.6818C151.287 73.7727 151.452 72.9792 151.781 72.3011C152.115 71.6231 152.577 71.0966 153.168 70.7216C153.762 70.3466 154.454 70.1591 155.241 70.1591C156.029 70.1591 156.719 70.3466 157.31 70.7216C157.904 71.0966 158.366 71.6231 158.696 72.3011C159.029 72.9792 159.196 73.7727 159.196 74.6818C159.196 75.5833 159.029 76.3712 158.696 77.0455C158.366 77.7197 157.904 78.2443 157.31 78.6193C156.719 78.9943 156.029 79.1818 155.241 79.1818ZM155.241 77.9773C155.84 77.9773 156.332 77.8239 156.719 77.517C157.105 77.2102 157.391 76.8068 157.577 76.3068C157.762 75.8068 157.855 75.2652 157.855 74.6818C157.855 74.0985 157.762 73.5549 157.577 73.0511C157.391 72.5473 157.105 72.1402 156.719 71.8295C156.332 71.5189 155.84 71.3636 155.241 71.3636C154.643 71.3636 154.151 71.5189 153.764 71.8295C153.378 72.1402 153.092 72.5473 152.906 73.0511C152.721 73.5549 152.628 74.0985 152.628 74.6818C152.628 75.2652 152.721 75.8068 152.906 76.3068C153.092 76.8068 153.378 77.2102 153.764 77.517C154.151 77.8239 154.643 77.9773 155.241 77.9773ZM160.47 79V77.75H160.788C161.05 77.75 161.268 77.6989 161.442 77.5966C161.616 77.4905 161.756 77.3068 161.862 77.0455C161.972 76.7803 162.055 76.4129 162.112 75.9432C162.173 75.4697 162.216 74.8674 162.243 74.1364L162.402 70.2727H168.22V79H166.879V71.5227H163.675L163.538 74.6364C163.508 75.3523 163.444 75.983 163.345 76.5284C163.25 77.0701 163.105 77.5246 162.908 77.892C162.714 78.2595 162.457 78.536 162.135 78.7216C161.813 78.9072 161.41 79 160.925 79H160.47ZM173.249 79.2045C172.696 79.2045 172.194 79.1004 171.743 78.892C171.292 78.6799 170.934 78.375 170.669 77.9773C170.404 77.5758 170.271 77.0909 170.271 76.5227C170.271 76.0227 170.37 75.6174 170.567 75.3068C170.764 74.9924 171.027 74.7462 171.357 74.5682C171.686 74.3902 172.05 74.2576 172.447 74.1705C172.849 74.0795 173.252 74.0076 173.658 73.9545C174.188 73.8864 174.618 73.8352 174.947 73.8011C175.281 73.7633 175.523 73.7008 175.675 73.6136C175.83 73.5265 175.908 73.375 175.908 73.1591V73.1136C175.908 72.553 175.754 72.1174 175.447 71.8068C175.144 71.4962 174.684 71.3409 174.067 71.3409C173.427 71.3409 172.925 71.4811 172.561 71.7614C172.197 72.0417 171.942 72.3409 171.794 72.6591L170.521 72.2045C170.749 71.6742 171.052 71.2614 171.43 70.9659C171.813 70.6667 172.23 70.4583 172.68 70.3409C173.135 70.2197 173.582 70.1591 174.021 70.1591C174.302 70.1591 174.624 70.1932 174.987 70.2614C175.355 70.3258 175.709 70.4602 176.05 70.6648C176.394 70.8693 176.68 71.178 176.908 71.5909C177.135 72.0038 177.249 72.5568 177.249 73.25V79H175.908V77.8182H175.839C175.749 78.0076 175.597 78.2102 175.385 78.4261C175.173 78.642 174.891 78.8258 174.538 78.9773C174.186 79.1288 173.756 79.2045 173.249 79.2045ZM173.453 78C173.983 78 174.43 77.8958 174.794 77.6875C175.161 77.4792 175.438 77.2102 175.624 76.8807C175.813 76.5511 175.908 76.2045 175.908 75.8409V74.6136C175.851 74.6818 175.726 74.7443 175.533 74.8011C175.343 74.8542 175.124 74.9015 174.874 74.9432C174.627 74.9811 174.387 75.0152 174.152 75.0455C173.921 75.072 173.733 75.0947 173.589 75.1136C173.241 75.1591 172.915 75.233 172.612 75.3352C172.313 75.4337 172.071 75.5833 171.885 75.7841C171.703 75.9811 171.612 76.25 171.612 76.5909C171.612 77.0568 171.785 77.4091 172.129 77.6477C172.478 77.8826 172.919 78 173.453 78ZM183.264 81.5V77.75H183.991C184.17 77.5644 184.323 77.3636 184.452 77.1477C184.58 76.9318 184.692 76.6761 184.787 76.3807C184.885 76.0814 184.969 75.7178 185.037 75.2898C185.105 74.858 185.166 74.3371 185.219 73.7273L185.514 70.2727H191.06V77.75H192.401V81.5H191.06V79H184.605V81.5H183.264ZM185.514 77.75H189.719V71.5227H186.764L186.537 73.7273C186.442 74.6402 186.325 75.4375 186.185 76.1193C186.045 76.8011 185.821 77.3447 185.514 77.75ZM197.726 79.1818C196.938 79.1818 196.247 78.9943 195.652 78.6193C195.061 78.2443 194.599 77.7197 194.266 77.0455C193.936 76.3712 193.771 75.5833 193.771 74.6818C193.771 73.7727 193.936 72.9792 194.266 72.3011C194.599 71.6231 195.061 71.0966 195.652 70.7216C196.247 70.3466 196.938 70.1591 197.726 70.1591C198.514 70.1591 199.203 70.3466 199.794 70.7216C200.389 71.0966 200.851 71.6231 201.18 72.3011C201.514 72.9792 201.68 73.7727 201.68 74.6818C201.68 75.5833 201.514 76.3712 201.18 77.0455C200.851 77.7197 200.389 78.2443 199.794 78.6193C199.203 78.9943 198.514 79.1818 197.726 79.1818ZM197.726 77.9773C198.324 77.9773 198.817 77.8239 199.203 77.517C199.589 77.2102 199.875 76.8068 200.061 76.3068C200.247 75.8068 200.339 75.2652 200.339 74.6818C200.339 74.0985 200.247 73.5549 200.061 73.0511C199.875 72.5473 199.589 72.1402 199.203 71.8295C198.817 71.5189 198.324 71.3636 197.726 71.3636C197.127 71.3636 196.635 71.5189 196.249 71.8295C195.862 72.1402 195.576 72.5473 195.391 73.0511C195.205 73.5549 195.112 74.0985 195.112 74.6818C195.112 75.2652 195.205 75.8068 195.391 76.3068C195.576 76.8068 195.862 77.2102 196.249 77.517C196.635 77.8239 197.127 77.9773 197.726 77.9773ZM210.205 67L210.886 67.8182C210.621 68.0758 210.314 68.2557 209.966 68.358C209.617 68.4602 209.223 68.5227 208.784 68.5455C208.345 68.5682 207.856 68.5909 207.318 68.6136C206.712 68.6364 206.21 68.7841 205.812 69.0568C205.415 69.3295 205.108 69.7235 204.892 70.2386C204.676 70.7538 204.538 71.3864 204.477 72.1364H204.591C204.886 71.5909 205.295 71.1894 205.818 70.9318C206.341 70.6742 206.902 70.5455 207.5 70.5455C208.182 70.5455 208.795 70.7045 209.341 71.0227C209.886 71.3409 210.318 71.8125 210.636 72.4375C210.955 73.0625 211.114 73.8333 211.114 74.75C211.114 75.6629 210.951 76.4508 210.625 77.1136C210.303 77.7765 209.85 78.2879 209.267 78.6477C208.688 79.0038 208.008 79.1818 207.227 79.1818C206.447 79.1818 205.763 78.9981 205.176 78.6307C204.589 78.2595 204.133 77.7102 203.807 76.983C203.481 76.2519 203.318 75.3485 203.318 74.2727V73.3409C203.318 71.3977 203.648 69.9242 204.307 68.9205C204.97 67.9167 205.966 67.3977 207.295 67.3636C207.765 67.3485 208.184 67.3447 208.551 67.3523C208.919 67.3598 209.239 67.3428 209.511 67.3011C209.784 67.2595 210.015 67.1591 210.205 67ZM207.227 77.9773C207.754 77.9773 208.206 77.8447 208.585 77.5795C208.968 77.3144 209.261 76.9413 209.466 76.4602C209.67 75.9754 209.773 75.4053 209.773 74.75C209.773 74.1136 209.669 73.572 209.46 73.125C209.256 72.678 208.962 72.3371 208.58 72.1023C208.197 71.8674 207.739 71.75 207.205 71.75C206.814 71.75 206.464 71.8163 206.153 71.9489C205.843 72.0814 205.578 72.2765 205.358 72.5341C205.138 72.7917 204.968 73.1061 204.847 73.4773C204.729 73.8485 204.667 74.2727 204.659 74.75C204.659 75.7273 204.888 76.5095 205.347 77.0966C205.805 77.6837 206.432 77.9773 207.227 77.9773ZM213.165 82.2727V70.2727H214.46V71.6591H214.619C214.718 71.5076 214.854 71.3144 215.028 71.0795C215.206 70.8409 215.46 70.6288 215.79 70.4432C216.123 70.2538 216.574 70.1591 217.142 70.1591C217.877 70.1591 218.525 70.3428 219.085 70.7102C219.646 71.0777 220.083 71.5985 220.398 72.2727C220.712 72.947 220.869 73.7424 220.869 74.6591C220.869 75.5833 220.712 76.3845 220.398 77.0625C220.083 77.7367 219.648 78.2595 219.091 78.6307C218.534 78.9981 217.892 79.1818 217.165 79.1818C216.604 79.1818 216.155 79.089 215.818 78.9034C215.481 78.714 215.222 78.5 215.04 78.2614C214.858 78.0189 214.718 77.8182 214.619 77.6591H214.506V82.2727H213.165ZM214.483 74.6364C214.483 75.2955 214.58 75.8769 214.773 76.3807C214.966 76.8807 215.248 77.2727 215.619 77.5568C215.991 77.8371 216.445 77.9773 216.983 77.9773C217.544 77.9773 218.011 77.8295 218.386 77.5341C218.765 77.2348 219.049 76.8333 219.239 76.3295C219.432 75.822 219.528 75.2576 219.528 74.6364C219.528 74.0227 219.434 73.4697 219.244 72.9773C219.059 72.4811 218.777 72.089 218.398 71.8011C218.023 71.5095 217.551 71.3636 216.983 71.3636C216.438 71.3636 215.979 71.5019 215.608 71.7784C215.237 72.0511 214.956 72.4337 214.767 72.9261C214.578 73.4148 214.483 73.9848 214.483 74.6364ZM224.256 77.0227L228.46 70.2727H230.006V79H228.665V72.25L224.483 79H222.915V70.2727H224.256V77.0227ZM233.462 70.2727L235.553 73.8409L237.643 70.2727H239.189L236.371 74.6364L239.189 79H237.643L235.553 75.6136L233.462 79H231.916L234.689 74.6364L231.916 70.2727H233.462ZM245.602 79V70.2727H249.17C250.11 70.2727 250.856 70.4848 251.409 70.9091C251.962 71.3333 252.239 71.8939 252.239 72.5909C252.239 73.1212 252.081 73.5322 251.767 73.8239C251.453 74.1117 251.049 74.3068 250.557 74.4091C250.879 74.4545 251.191 74.5682 251.494 74.75C251.801 74.9318 252.055 75.1818 252.256 75.5C252.456 75.8144 252.557 76.2008 252.557 76.6591C252.557 77.1061 252.443 77.5057 252.216 77.858C251.989 78.2102 251.663 78.4886 251.239 78.6932C250.814 78.8977 250.307 79 249.716 79H245.602ZM246.875 77.7727H249.716C250.178 77.7727 250.54 77.6629 250.801 77.4432C251.063 77.2235 251.193 76.9242 251.193 76.5455C251.193 76.0947 251.063 75.7405 250.801 75.483C250.54 75.2216 250.178 75.0909 249.716 75.0909H246.875V77.7727ZM246.875 73.9318H249.17C249.53 73.9318 249.839 73.8826 250.097 73.7841C250.354 73.6818 250.551 73.5379 250.688 73.3523C250.828 73.1629 250.898 72.9394 250.898 72.6818C250.898 72.3144 250.744 72.0265 250.438 71.8182C250.131 71.6061 249.708 71.5 249.17 71.5H246.875V73.9318ZM255.928 77.0227L260.132 70.2727H261.678V79H260.337V72.25L256.155 79H254.587V70.2727H255.928V77.0227ZM270.611 67L271.293 67.8182C271.027 68.0758 270.721 68.2557 270.372 68.358C270.024 68.4602 269.63 68.5227 269.19 68.5455C268.751 68.5682 268.262 68.5909 267.724 68.6136C267.118 68.6364 266.616 68.7841 266.219 69.0568C265.821 69.3295 265.514 69.7235 265.298 70.2386C265.082 70.7538 264.944 71.3864 264.884 72.1364H264.997C265.293 71.5909 265.702 71.1894 266.224 70.9318C266.747 70.6742 267.308 70.5455 267.906 70.5455C268.588 70.5455 269.202 70.7045 269.747 71.0227C270.293 71.3409 270.724 71.8125 271.043 72.4375C271.361 73.0625 271.52 73.8333 271.52 74.75C271.52 75.6629 271.357 76.4508 271.031 77.1136C270.709 77.7765 270.257 78.2879 269.673 78.6477C269.094 79.0038 268.414 79.1818 267.634 79.1818C266.853 79.1818 266.17 78.9981 265.582 78.6307C264.995 78.2595 264.539 77.7102 264.213 76.983C263.887 76.2519 263.724 75.3485 263.724 74.2727V73.3409C263.724 71.3977 264.054 69.9242 264.713 68.9205C265.376 67.9167 266.372 67.3977 267.702 67.3636C268.171 67.3485 268.59 67.3447 268.957 67.3523C269.325 67.3598 269.645 67.3428 269.918 67.3011C270.19 67.2595 270.421 67.1591 270.611 67ZM267.634 77.9773C268.16 77.9773 268.613 77.8447 268.991 77.5795C269.374 77.3144 269.668 76.9413 269.872 76.4602C270.077 75.9754 270.179 75.4053 270.179 74.75C270.179 74.1136 270.075 73.572 269.866 73.125C269.662 72.678 269.368 72.3371 268.986 72.1023C268.603 71.8674 268.145 71.75 267.611 71.75C267.221 71.75 266.87 71.8163 266.56 71.9489C266.249 72.0814 265.984 72.2765 265.764 72.5341C265.545 72.7917 265.374 73.1061 265.253 73.4773C265.135 73.8485 265.073 74.2727 265.065 74.75C265.065 75.7273 265.295 76.5095 265.753 77.0966C266.211 77.6837 266.838 77.9773 267.634 77.9773ZM273.571 82.2727V70.2727H274.866V71.6591H275.026C275.124 71.5076 275.26 71.3144 275.435 71.0795C275.613 70.8409 275.866 70.6288 276.196 70.4432C276.529 70.2538 276.98 70.1591 277.548 70.1591C278.283 70.1591 278.931 70.3428 279.491 70.7102C280.052 71.0777 280.49 71.5985 280.804 72.2727C281.118 72.947 281.276 73.7424 281.276 74.6591C281.276 75.5833 281.118 76.3845 280.804 77.0625C280.49 77.7367 280.054 78.2595 279.497 78.6307C278.94 78.9981 278.298 79.1818 277.571 79.1818C277.01 79.1818 276.562 79.089 276.224 78.9034C275.887 78.714 275.628 78.5 275.446 78.2614C275.264 78.0189 275.124 77.8182 275.026 77.6591H274.912V82.2727H273.571ZM274.889 74.6364C274.889 75.2955 274.986 75.8769 275.179 76.3807C275.372 76.8807 275.654 77.2727 276.026 77.5568C276.397 77.8371 276.851 77.9773 277.389 77.9773C277.95 77.9773 278.418 77.8295 278.793 77.5341C279.171 77.2348 279.455 76.8333 279.645 76.3295C279.838 75.822 279.935 75.2576 279.935 74.6364C279.935 74.0227 279.84 73.4697 279.651 72.9773C279.465 72.4811 279.183 72.089 278.804 71.8011C278.429 71.5095 277.957 71.3636 277.389 71.3636C276.844 71.3636 276.385 71.5019 276.014 71.7784C275.643 72.0511 275.363 72.4337 275.173 72.9261C274.984 73.4148 274.889 73.9848 274.889 74.6364ZM285.889 79.2045C285.336 79.2045 284.834 79.1004 284.384 78.892C283.933 78.6799 283.575 78.375 283.31 77.9773C283.045 77.5758 282.912 77.0909 282.912 76.5227C282.912 76.0227 283.01 75.6174 283.207 75.3068C283.404 74.9924 283.668 74.7462 283.997 74.5682C284.327 74.3902 284.69 74.2576 285.088 74.1705C285.49 74.0795 285.893 74.0076 286.298 73.9545C286.829 73.8864 287.259 73.8352 287.588 73.8011C287.921 73.7633 288.164 73.7008 288.315 73.6136C288.471 73.5265 288.548 73.375 288.548 73.1591V73.1136C288.548 72.553 288.395 72.1174 288.088 71.8068C287.785 71.4962 287.325 71.3409 286.707 71.3409C286.067 71.3409 285.565 71.4811 285.202 71.7614C284.838 72.0417 284.582 72.3409 284.435 72.6591L283.162 72.2045C283.389 71.6742 283.692 71.2614 284.071 70.9659C284.454 70.6667 284.87 70.4583 285.321 70.3409C285.776 70.2197 286.223 70.1591 286.662 70.1591C286.942 70.1591 287.264 70.1932 287.628 70.2614C287.995 70.3258 288.349 70.4602 288.69 70.6648C289.035 70.8693 289.321 71.178 289.548 71.5909C289.776 72.0038 289.889 72.5568 289.889 73.25V79H288.548V77.8182H288.48C288.389 78.0076 288.238 78.2102 288.026 78.4261C287.813 78.642 287.531 78.8258 287.179 78.9773C286.827 79.1288 286.397 79.2045 285.889 79.2045ZM286.094 78C286.624 78 287.071 77.8958 287.435 77.6875C287.802 77.4792 288.079 77.2102 288.264 76.8807C288.454 76.5511 288.548 76.2045 288.548 75.8409V74.6136C288.491 74.6818 288.366 74.7443 288.173 74.8011C287.984 74.8542 287.764 74.9015 287.514 74.9432C287.268 74.9811 287.027 75.0152 286.793 75.0455C286.562 75.072 286.374 75.0947 286.23 75.1136C285.882 75.1591 285.556 75.233 285.253 75.3352C284.954 75.4337 284.711 75.5833 284.526 75.7841C284.344 75.9811 284.253 76.25 284.253 76.5909C284.253 77.0568 284.425 77.4091 284.77 77.6477C285.118 77.8826 285.56 78 286.094 78ZM299.2 70.2727V77.75H300.428V81.8182H299.087V79H292.337V70.2727H293.678V77.75H297.859V70.2727H299.2ZM303.834 77.0227L308.038 70.2727H309.584V79H308.243V72.25L304.061 79H302.493V70.2727H303.834V77.0227ZM312.04 70.2727H313.381V79.6364C313.381 80.1742 313.288 80.6402 313.102 81.0341C312.92 81.428 312.644 81.733 312.273 81.9489C311.905 82.1648 311.441 82.2727 310.881 82.2727C310.835 82.2727 310.79 82.2727 310.744 82.2727C310.699 82.2727 310.653 82.2727 310.608 82.2727V81.0227C310.653 81.0227 310.695 81.0227 310.733 81.0227C310.771 81.0227 310.812 81.0227 310.858 81.0227C311.267 81.0227 311.566 80.9015 311.756 80.6591C311.945 80.4205 312.04 80.0795 312.04 79.6364V70.2727ZM312.699 68.8182C312.438 68.8182 312.212 68.7292 312.023 68.5511C311.837 68.3731 311.744 68.1591 311.744 67.9091C311.744 67.6591 311.837 67.4451 312.023 67.267C312.212 67.089 312.438 67 312.699 67C312.96 67 313.184 67.089 313.369 67.267C313.559 67.4451 313.653 67.6591 313.653 67.9091C313.653 68.1591 313.559 68.3731 313.369 68.5511C313.184 68.7292 312.96 68.8182 312.699 68.8182ZM318.405 79.2045C317.852 79.2045 317.35 79.1004 316.899 78.892C316.448 78.6799 316.09 78.375 315.825 77.9773C315.56 77.5758 315.428 77.0909 315.428 76.5227C315.428 76.0227 315.526 75.6174 315.723 75.3068C315.92 74.9924 316.183 74.7462 316.513 74.5682C316.842 74.3902 317.206 74.2576 317.604 74.1705C318.005 74.0795 318.409 74.0076 318.814 73.9545C319.344 73.8864 319.774 73.8352 320.104 73.8011C320.437 73.7633 320.679 73.7008 320.831 73.6136C320.986 73.5265 321.064 73.375 321.064 73.1591V73.1136C321.064 72.553 320.911 72.1174 320.604 71.8068C320.301 71.4962 319.84 71.3409 319.223 71.3409C318.583 71.3409 318.081 71.4811 317.717 71.7614C317.354 72.0417 317.098 72.3409 316.95 72.6591L315.678 72.2045C315.905 71.6742 316.208 71.2614 316.587 70.9659C316.969 70.6667 317.386 70.4583 317.837 70.3409C318.291 70.2197 318.738 70.1591 319.178 70.1591C319.458 70.1591 319.78 70.1932 320.143 70.2614C320.511 70.3258 320.865 70.4602 321.206 70.6648C321.551 70.8693 321.837 71.178 322.064 71.5909C322.291 72.0038 322.405 72.5568 322.405 73.25V79H321.064V77.8182H320.996C320.905 78.0076 320.753 78.2102 320.541 78.4261C320.329 78.642 320.047 78.8258 319.695 78.9773C319.342 79.1288 318.912 79.2045 318.405 79.2045ZM318.609 78C319.14 78 319.587 77.8958 319.95 77.6875C320.318 77.4792 320.594 77.2102 320.78 76.8807C320.969 76.5511 321.064 76.2045 321.064 75.8409V74.6136C321.007 74.6818 320.882 74.7443 320.689 74.8011C320.5 74.8542 320.28 74.9015 320.03 74.9432C319.784 74.9811 319.543 75.0152 319.308 75.0455C319.077 75.072 318.89 75.0947 318.746 75.1136C318.397 75.1591 318.071 75.233 317.768 75.3352C317.469 75.4337 317.227 75.5833 317.041 75.7841C316.859 75.9811 316.768 76.25 316.768 76.5909C316.768 77.0568 316.941 77.4091 317.286 77.6477C317.634 77.8826 318.075 78 318.609 78Z" fill="#B1C900"/>
        <path d="M141.229 30.3636V32.473H131.756V50H129.378V30.3636H141.229ZM145.335 46.6634L152.43 35.2727H155.038V50H152.775V38.6094L145.718 50H143.072V35.2727H145.335V46.6634ZM167.236 46.9318L172.376 35.2727H174.523L168.157 50H166.316L160.064 35.2727H162.174L167.236 46.9318ZM161.445 35.2727V50H159.182V35.2727H161.445ZM173.028 50V35.2727H175.29V50H173.028ZM189.289 41.6009V43.7102H181.158V41.6009H189.289ZM181.695 35.2727V50H179.432V35.2727H181.695ZM191.015 35.2727V50H188.752V35.2727H191.015ZM199.481 50.3452C198.548 50.3452 197.701 50.1694 196.94 49.8178C196.18 49.4599 195.575 48.9453 195.128 48.2741C194.681 47.5966 194.457 46.7784 194.457 45.8196C194.457 44.9759 194.623 44.2919 194.955 43.7678C195.288 43.2372 195.732 42.8217 196.288 42.5213C196.844 42.2209 197.458 41.9972 198.129 41.8501C198.807 41.6967 199.487 41.5753 200.171 41.4858C201.066 41.3707 201.792 41.2844 202.348 41.2269C202.91 41.163 203.319 41.0575 203.575 40.9105C203.837 40.7635 203.968 40.5078 203.968 40.1435V40.0668C203.968 39.1207 203.709 38.3857 203.192 37.8615C202.68 37.3374 201.904 37.0753 200.862 37.0753C199.781 37.0753 198.934 37.3118 198.321 37.7848C197.707 38.2578 197.276 38.7628 197.026 39.2997L194.879 38.5327C195.262 37.6378 195.774 36.9411 196.413 36.4425C197.058 35.9375 197.762 35.5859 198.522 35.3878C199.289 35.1832 200.044 35.081 200.785 35.081C201.258 35.081 201.801 35.1385 202.415 35.2536C203.035 35.3622 203.633 35.5891 204.208 35.9343C204.79 36.2795 205.272 36.8004 205.656 37.4972C206.039 38.1939 206.231 39.1271 206.231 40.2969V50H203.968V48.0057H203.853C203.7 48.3253 203.444 48.6673 203.086 49.0316C202.728 49.396 202.252 49.706 201.657 49.9616C201.063 50.2173 200.338 50.3452 199.481 50.3452ZM199.826 48.3125C200.721 48.3125 201.475 48.1367 202.089 47.7852C202.709 47.4336 203.176 46.9798 203.489 46.4237C203.808 45.8675 203.968 45.2827 203.968 44.669V42.598C203.872 42.7131 203.661 42.8185 203.335 42.9144C203.016 43.0039 202.645 43.0838 202.223 43.1541C201.808 43.218 201.402 43.2756 201.006 43.3267C200.616 43.3714 200.299 43.4098 200.056 43.4418C199.468 43.5185 198.919 43.6431 198.407 43.8157C197.902 43.9819 197.493 44.2344 197.18 44.5732C196.873 44.9055 196.72 45.3594 196.72 45.9347C196.72 46.7209 197.01 47.3153 197.592 47.718C198.18 48.1143 198.925 48.3125 199.826 48.3125ZM209.441 46.2415H211.857C211.908 46.9062 212.208 47.4112 212.758 47.7564C213.314 48.1016 214.036 48.2741 214.925 48.2741C215.833 48.2741 216.609 48.0888 217.255 47.718C217.9 47.3409 218.223 46.7337 218.223 45.8963C218.223 45.4041 218.102 44.9759 217.859 44.6115C217.616 44.2408 217.274 43.9531 216.833 43.7486C216.392 43.544 215.871 43.4418 215.27 43.4418H212.739V41.4091H215.27C216.171 41.4091 216.836 41.2045 217.264 40.7955C217.699 40.3864 217.916 39.875 217.916 39.2614C217.916 38.603 217.683 38.0756 217.217 37.6793C216.75 37.2766 216.088 37.0753 215.232 37.0753C214.369 37.0753 213.65 37.2702 213.074 37.6602C212.499 38.0437 212.196 38.5391 212.164 39.1463H209.786C209.811 38.3537 210.054 37.6538 210.514 37.0465C210.975 36.4329 211.601 35.9535 212.394 35.6083C213.186 35.2567 214.094 35.081 215.117 35.081C216.152 35.081 217.05 35.2631 217.811 35.6275C218.578 35.9854 219.169 36.4744 219.585 37.0945C220.007 37.7081 220.218 38.4048 220.218 39.1847C220.218 40.0156 219.984 40.6868 219.518 41.1982C219.051 41.7095 218.466 42.0739 217.763 42.2912V42.4446C218.319 42.483 218.802 42.6619 219.211 42.9815C219.626 43.2947 219.949 43.707 220.179 44.2184C220.409 44.7234 220.524 45.2827 220.524 45.8963C220.524 46.7912 220.285 47.571 219.805 48.2358C219.326 48.8942 218.668 49.4055 217.83 49.7699C216.993 50.1278 216.037 50.3068 214.963 50.3068C213.921 50.3068 212.988 50.1374 212.164 49.7987C211.339 49.4535 210.684 48.9773 210.198 48.37C209.719 47.7564 209.466 47.0469 209.441 46.2415ZM225.966 46.6634L233.061 35.2727H235.669V50H233.406V38.6094L226.349 50H223.703V35.2727H225.966V46.6634ZM239.813 35.2727H242.076V51.0739C242.076 51.9815 241.919 52.7678 241.606 53.4325C241.299 54.0973 240.833 54.6119 240.206 54.9762C239.586 55.3406 238.803 55.5227 237.857 55.5227C237.781 55.5227 237.704 55.5227 237.627 55.5227C237.55 55.5227 237.474 55.5227 237.397 55.5227V53.4134C237.474 53.4134 237.544 53.4134 237.608 53.4134C237.672 53.4134 237.742 53.4134 237.819 53.4134C238.509 53.4134 239.014 53.2088 239.334 52.7997C239.653 52.397 239.813 51.8217 239.813 51.0739V35.2727ZM240.925 32.8182C240.484 32.8182 240.104 32.668 239.784 32.3675C239.471 32.0671 239.315 31.706 239.315 31.2841C239.315 30.8622 239.471 30.5011 239.784 30.2006C240.104 29.9002 240.484 29.75 240.925 29.75C241.366 29.75 241.744 29.9002 242.057 30.2006C242.376 30.5011 242.536 30.8622 242.536 31.2841C242.536 31.706 242.376 32.0671 242.057 32.3675C241.744 32.668 241.366 32.8182 240.925 32.8182ZM250.554 50.3452C249.621 50.3452 248.774 50.1694 248.013 49.8178C247.253 49.4599 246.649 48.9453 246.201 48.2741C245.754 47.5966 245.53 46.7784 245.53 45.8196C245.53 44.9759 245.696 44.2919 246.029 43.7678C246.361 43.2372 246.805 42.8217 247.361 42.5213C247.918 42.2209 248.531 41.9972 249.202 41.8501C249.88 41.6967 250.561 41.5753 251.245 41.4858C252.139 41.3707 252.865 41.2844 253.421 41.2269C253.984 41.163 254.393 41.0575 254.648 40.9105C254.91 40.7635 255.041 40.5078 255.041 40.1435V40.0668C255.041 39.1207 254.783 38.3857 254.265 37.8615C253.753 37.3374 252.977 37.0753 251.935 37.0753C250.855 37.0753 250.008 37.3118 249.394 37.7848C248.78 38.2578 248.349 38.7628 248.1 39.2997L245.952 38.5327C246.335 37.6378 246.847 36.9411 247.486 36.4425C248.132 35.9375 248.835 35.5859 249.595 35.3878C250.362 35.1832 251.117 35.081 251.858 35.081C252.331 35.081 252.875 35.1385 253.488 35.2536C254.108 35.3622 254.706 35.5891 255.281 35.9343C255.863 36.2795 256.345 36.8004 256.729 37.4972C257.112 38.1939 257.304 39.1271 257.304 40.2969V50H255.041V48.0057H254.926C254.773 48.3253 254.517 48.6673 254.159 49.0316C253.801 49.396 253.325 49.706 252.731 49.9616C252.136 50.2173 251.411 50.3452 250.554 50.3452ZM250.899 48.3125C251.794 48.3125 252.549 48.1367 253.162 47.7852C253.782 47.4336 254.249 46.9798 254.562 46.4237C254.882 45.8675 255.041 45.2827 255.041 44.669V42.598C254.946 42.7131 254.735 42.8185 254.409 42.9144C254.089 43.0039 253.718 43.0838 253.296 43.1541C252.881 43.218 252.475 43.2756 252.079 43.3267C251.689 43.3714 251.372 43.4098 251.13 43.4418C250.541 43.5185 249.992 43.6431 249.48 43.8157C248.975 43.9819 248.566 44.2344 248.253 44.5732C247.946 44.9055 247.793 45.3594 247.793 45.9347C247.793 46.7209 248.084 47.3153 248.665 47.718C249.253 48.1143 249.998 48.3125 250.899 48.3125Z" fill="#007C8A"/>
        <path d="M293.179 36.5H290.801C290.661 35.8161 290.414 35.2152 290.063 34.6974C289.718 34.1797 289.296 33.745 288.797 33.3935C288.305 33.0355 287.759 32.767 287.158 32.5881C286.557 32.4091 285.93 32.3196 285.278 32.3196C284.089 32.3196 283.012 32.62 282.047 33.2209C281.088 33.8217 280.325 34.707 279.756 35.8768C279.193 37.0465 278.912 38.4815 278.912 40.1818C278.912 41.8821 279.193 43.3171 279.756 44.4869C280.325 45.6566 281.088 46.5419 282.047 47.1428C283.012 47.7436 284.089 48.044 285.278 48.044C285.93 48.044 286.557 47.9545 287.158 47.7756C287.759 47.5966 288.305 47.3313 288.797 46.9798C289.296 46.6218 289.718 46.1839 290.063 45.6662C290.414 45.142 290.661 44.5412 290.801 43.8636H293.179C293 44.8672 292.674 45.7653 292.201 46.5579C291.728 47.3505 291.14 48.0249 290.437 48.581C289.734 49.1307 288.944 49.5494 288.069 49.837C287.199 50.1246 286.269 50.2685 285.278 50.2685C283.604 50.2685 282.114 49.8594 280.81 49.0412C279.506 48.223 278.48 47.0597 277.733 45.5511C276.985 44.0426 276.611 42.2528 276.611 40.1818C276.611 38.1108 276.985 36.321 277.733 34.8125C278.48 33.304 279.506 32.1406 280.81 31.3224C282.114 30.5043 283.604 30.0952 285.278 30.0952C286.269 30.0952 287.199 30.239 288.069 30.5266C288.944 30.8143 289.734 31.2362 290.437 31.7923C291.14 32.342 291.728 33.0131 292.201 33.8058C292.674 34.592 293 35.4901 293.179 36.5ZM296.715 50V35.2727H302.736C304.321 35.2727 305.58 35.6307 306.514 36.3466C307.447 37.0625 307.913 38.0085 307.913 39.1847C307.913 40.0795 307.648 40.7731 307.118 41.2653C306.587 41.7511 305.906 42.0803 305.075 42.2528C305.619 42.3295 306.146 42.5213 306.657 42.8281C307.175 43.1349 307.603 43.5568 307.942 44.0938C308.281 44.6243 308.45 45.2763 308.45 46.0497C308.45 46.804 308.259 47.4783 307.875 48.0728C307.492 48.6673 306.942 49.1371 306.226 49.4822C305.51 49.8274 304.653 50 303.656 50H296.715ZM298.862 47.929H303.656C304.436 47.929 305.047 47.7436 305.488 47.3729C305.929 47.0021 306.149 46.4972 306.149 45.858C306.149 45.0973 305.929 44.4996 305.488 44.065C305.047 43.6239 304.436 43.4034 303.656 43.4034H298.862V47.929ZM298.862 41.4474H302.736C303.343 41.4474 303.864 41.3643 304.299 41.1982C304.733 41.0256 305.066 40.7827 305.296 40.4695C305.532 40.1499 305.651 39.7727 305.651 39.3381C305.651 38.718 305.392 38.2322 304.874 37.8807C304.356 37.5227 303.644 37.3438 302.736 37.3438H298.862V41.4474ZM318.05 50.3068C316.631 50.3068 315.407 49.9936 314.378 49.3672C313.355 48.7344 312.566 47.8523 312.01 46.7209C311.46 45.5831 311.185 44.2599 311.185 42.7514C311.185 41.2429 311.46 39.9134 312.01 38.7628C312.566 37.6058 313.339 36.7045 314.33 36.0589C315.327 35.407 316.491 35.081 317.82 35.081C318.587 35.081 319.345 35.2088 320.093 35.4645C320.841 35.7202 321.521 36.1357 322.135 36.7109C322.749 37.2798 323.238 38.0341 323.602 38.9737C323.966 39.9134 324.148 41.0703 324.148 42.4446V43.4034H312.796V41.4474H321.847C321.847 40.6165 321.681 39.875 321.349 39.223C321.023 38.571 320.556 38.0565 319.949 37.6793C319.348 37.3022 318.638 37.1136 317.82 37.1136C316.919 37.1136 316.139 37.3374 315.481 37.7848C314.829 38.2259 314.327 38.8011 313.975 39.5107C313.624 40.2202 313.448 40.9808 313.448 41.7926V43.0966C313.448 44.2088 313.64 45.1516 314.023 45.9251C314.413 46.6921 314.953 47.277 315.644 47.6797C316.334 48.076 317.136 48.2741 318.05 48.2741C318.645 48.2741 319.182 48.1911 319.661 48.0249C320.147 47.8523 320.566 47.5966 320.917 47.2578C321.269 46.9126 321.54 46.4844 321.732 45.973L323.918 46.5866C323.688 47.3281 323.301 47.9801 322.758 48.5426C322.215 49.0987 321.544 49.5334 320.745 49.8466C319.946 50.1534 319.048 50.3068 318.05 50.3068ZM326.219 37.3821V35.2727H338.185V37.3821H333.353V50H331.09V37.3821H326.219ZM343.749 46.6634L350.844 35.2727H353.452V50H351.189V38.6094L344.132 50H341.486V35.2727H343.749V46.6634ZM381.298 36.5H378.92C378.78 35.8161 378.534 35.2152 378.182 34.6974C377.837 34.1797 377.415 33.745 376.916 33.3935C376.424 33.0355 375.878 32.767 375.277 32.5881C374.676 32.4091 374.05 32.3196 373.398 32.3196C372.209 32.3196 371.132 32.62 370.166 33.2209C369.208 33.8217 368.444 34.707 367.875 35.8768C367.312 37.0465 367.031 38.4815 367.031 40.1818C367.031 41.8821 367.312 43.3171 367.875 44.4869C368.444 45.6566 369.208 46.5419 370.166 47.1428C371.132 47.7436 372.209 48.044 373.398 48.044C374.05 48.044 374.676 47.9545 375.277 47.7756C375.878 47.5966 376.424 47.3313 376.916 46.9798C377.415 46.6218 377.837 46.1839 378.182 45.6662C378.534 45.142 378.78 44.5412 378.92 43.8636H381.298C381.119 44.8672 380.793 45.7653 380.32 46.5579C379.847 47.3505 379.259 48.0249 378.556 48.581C377.853 49.1307 377.063 49.5494 376.188 49.837C375.318 50.1246 374.388 50.2685 373.398 50.2685C371.723 50.2685 370.233 49.8594 368.93 49.0412C367.626 48.223 366.6 47.0597 365.852 45.5511C365.104 44.0426 364.73 42.2528 364.73 40.1818C364.73 38.1108 365.104 36.321 365.852 34.8125C366.6 33.304 367.626 32.1406 368.93 31.3224C370.233 30.5043 371.723 30.0952 373.398 30.0952C374.388 30.0952 375.318 30.239 376.188 30.5266C377.063 30.8143 377.853 31.2362 378.556 31.7923C379.259 32.342 379.847 33.0131 380.32 33.8058C380.793 34.592 381.119 35.4901 381.298 36.5ZM389.168 50.3452C388.234 50.3452 387.387 50.1694 386.627 49.8178C385.866 49.4599 385.262 48.9453 384.815 48.2741C384.367 47.5966 384.143 46.7784 384.143 45.8196C384.143 44.9759 384.31 44.2919 384.642 43.7678C384.974 43.2372 385.419 42.8217 385.975 42.5213C386.531 42.2209 387.144 41.9972 387.816 41.8501C388.493 41.6967 389.174 41.5753 389.858 41.4858C390.753 41.3707 391.478 41.2844 392.034 41.2269C392.597 41.163 393.006 41.0575 393.262 40.9105C393.524 40.7635 393.655 40.5078 393.655 40.1435V40.0668C393.655 39.1207 393.396 38.3857 392.878 37.8615C392.367 37.3374 391.59 37.0753 390.548 37.0753C389.468 37.0753 388.621 37.3118 388.007 37.7848C387.394 38.2578 386.962 38.7628 386.713 39.2997L384.565 38.5327C384.949 37.6378 385.46 36.9411 386.099 36.4425C386.745 35.9375 387.448 35.5859 388.209 35.3878C388.976 35.1832 389.73 35.081 390.472 35.081C390.945 35.081 391.488 35.1385 392.101 35.2536C392.722 35.3622 393.319 35.5891 393.894 35.9343C394.476 36.2795 394.959 36.8004 395.342 37.4972C395.726 38.1939 395.918 39.1271 395.918 40.2969V50H393.655V48.0057H393.54C393.386 48.3253 393.131 48.6673 392.773 49.0316C392.415 49.396 391.938 49.706 391.344 49.9616C390.75 50.2173 390.024 50.3452 389.168 50.3452ZM389.513 48.3125C390.408 48.3125 391.162 48.1367 391.775 47.7852C392.396 47.4336 392.862 46.9798 393.175 46.4237C393.495 45.8675 393.655 45.2827 393.655 44.669V42.598C393.559 42.7131 393.348 42.8185 393.022 42.9144C392.702 43.0039 392.332 43.0838 391.91 43.1541C391.494 43.218 391.088 43.2756 390.692 43.3267C390.302 43.3714 389.986 43.4098 389.743 43.4418C389.155 43.5185 388.605 43.6431 388.094 43.8157C387.589 43.9819 387.18 44.2344 386.866 44.5732C386.56 44.9055 386.406 45.3594 386.406 45.9347C386.406 46.7209 386.697 47.3153 387.279 47.718C387.867 48.1143 388.611 48.3125 389.513 48.3125ZM400.048 50V35.2727H406.069C407.654 35.2727 408.913 35.6307 409.847 36.3466C410.78 37.0625 411.246 38.0085 411.246 39.1847C411.246 40.0795 410.981 40.7731 410.451 41.2653C409.92 41.7511 409.239 42.0803 408.408 42.2528C408.952 42.3295 409.479 42.5213 409.99 42.8281C410.508 43.1349 410.936 43.5568 411.275 44.0938C411.614 44.6243 411.783 45.2763 411.783 46.0497C411.783 46.804 411.592 47.4783 411.208 48.0728C410.825 48.6673 410.275 49.1371 409.559 49.4822C408.843 49.8274 407.987 50 406.989 50H400.048ZM402.195 47.929H406.989C407.769 47.929 408.38 47.7436 408.821 47.3729C409.262 47.0021 409.482 46.4972 409.482 45.858C409.482 45.0973 409.262 44.4996 408.821 44.065C408.38 43.6239 407.769 43.4034 406.989 43.4034H402.195V47.929ZM402.195 41.4474H406.069C406.676 41.4474 407.197 41.3643 407.632 41.1982C408.066 41.0256 408.399 40.7827 408.629 40.4695C408.865 40.1499 408.984 39.7727 408.984 39.3381C408.984 38.718 408.725 38.2322 408.207 37.8807C407.689 37.5227 406.977 37.3438 406.069 37.3438H402.195V41.4474ZM419.543 50.3452C418.609 50.3452 417.762 50.1694 417.002 49.8178C416.241 49.4599 415.637 48.9453 415.19 48.2741C414.742 47.5966 414.518 46.7784 414.518 45.8196C414.518 44.9759 414.685 44.2919 415.017 43.7678C415.349 43.2372 415.794 42.8217 416.35 42.5213C416.906 42.2209 417.519 41.9972 418.191 41.8501C418.868 41.6967 419.549 41.5753 420.233 41.4858C421.128 41.3707 421.853 41.2844 422.409 41.2269C422.972 41.163 423.381 41.0575 423.637 40.9105C423.899 40.7635 424.03 40.5078 424.03 40.1435V40.0668C424.03 39.1207 423.771 38.3857 423.253 37.8615C422.742 37.3374 421.965 37.0753 420.923 37.0753C419.843 37.0753 418.996 37.3118 418.382 37.7848C417.769 38.2578 417.337 38.7628 417.088 39.2997L414.94 38.5327C415.324 37.6378 415.835 36.9411 416.474 36.4425C417.12 35.9375 417.823 35.5859 418.584 35.3878C419.351 35.1832 420.105 35.081 420.847 35.081C421.32 35.081 421.863 35.1385 422.476 35.2536C423.097 35.3622 423.694 35.5891 424.269 35.9343C424.851 36.2795 425.334 36.8004 425.717 37.4972C426.101 38.1939 426.293 39.1271 426.293 40.2969V50H424.03V48.0057H423.915C423.761 48.3253 423.506 48.6673 423.148 49.0316C422.79 49.396 422.313 49.706 421.719 49.9616C421.125 50.2173 420.399 50.3452 419.543 50.3452ZM419.888 48.3125C420.783 48.3125 421.537 48.1367 422.15 47.7852C422.771 47.4336 423.237 46.9798 423.55 46.4237C423.87 45.8675 424.03 45.2827 424.03 44.669V42.598C423.934 42.7131 423.723 42.8185 423.397 42.9144C423.077 43.0039 422.707 43.0838 422.285 43.1541C421.869 43.218 421.463 43.2756 421.067 43.3267C420.677 43.3714 420.361 43.4098 420.118 43.4418C419.53 43.5185 418.98 43.6431 418.469 43.8157C417.964 43.9819 417.555 44.2344 417.241 44.5732C416.935 44.9055 416.781 45.3594 416.781 45.9347C416.781 46.7209 417.072 47.3153 417.654 47.718C418.242 48.1143 418.986 48.3125 419.888 48.3125ZM432.417 30.3636V32.0895C432.417 32.6136 432.321 33.1729 432.129 33.7674C431.944 34.3555 431.669 34.9276 431.305 35.4837C430.947 36.0334 430.512 36.5128 430.001 36.9219L428.773 35.9247C429.176 35.3494 429.525 34.7518 429.819 34.1317C430.119 33.5053 430.269 32.8374 430.269 32.1278V30.3636H432.417ZM437.326 30.3636V32.0895C437.326 32.6136 437.23 33.1729 437.038 33.7674C436.853 34.3555 436.578 34.9276 436.214 35.4837C435.856 36.0334 435.421 36.5128 434.91 36.9219L433.683 35.9247C434.085 35.3494 434.434 34.7518 434.728 34.1317C435.028 33.5053 435.178 32.8374 435.178 32.1278V30.3636H437.326Z" fill="#007C8A"/>
        <path d="M270.065 49.3636V51.0895C270.065 51.6136 269.969 52.1729 269.778 52.7674C269.592 53.3555 269.317 53.9276 268.953 54.4837C268.595 55.0334 268.161 55.5128 267.649 55.9219L266.422 54.9247C266.825 54.3494 267.173 53.7518 267.467 53.1317C267.767 52.5053 267.918 51.8374 267.918 51.1278V49.3636H270.065ZM274.974 49.3636V51.0895C274.974 51.6136 274.879 52.1729 274.687 52.7674C274.501 53.3555 274.227 53.9276 273.862 54.4837C273.504 55.0334 273.07 55.5128 272.558 55.9219L271.331 54.9247C271.734 54.3494 272.082 53.7518 272.376 53.1317C272.676 52.5053 272.827 51.8374 272.827 51.1278V49.3636H274.974Z" fill="#007C8A"/>
    </svg>